<?xml version="1.0" encoding="UTF-8"?>
<svg width="1589.3" height="672.99" version="1.1" viewBox="0 0 420.51 178.06" xmlns="http://www.w3.org/2000/svg" xmlns:xlink="http://www.w3.org/1999/xlink">
 <defs>
  <linearGradient id="linearGradient33" x1="158.75" x2="158.75" y2="317.5" gradientUnits="userSpaceOnUse">
   <stop stop-color="#ffd230" offset="0"/>
   <stop stop-color="#fd9a00" offset=".24737"/>
   <stop stop-color="#fd9a00" offset=".75395"/>
   <stop stop-color="#bb4d00" offset="1"/>
  </linearGradient>
 </defs>
 <g transform="translate(105.26 -59.47)">
  <g transform="translate(-890.74 -285.11)">
   <path d="m912.13 415.15v0.35278c10.053 0.43156 19.928 1.2113 29.633 4.1345 13.512 4.0695 26.253 11.965 38.1 19.483 8.418 5.3419 16.941 10.526 23.988 17.658 12.569 12.72 16.686 38.083 0.3541 49.831-8.8728 6.3828-23.416 7.624-32.103 0.1892-9.5932-8.2102-11.468-25.067 2.1167-30.807 11.452-4.8385 28.872 2.6 27.457 16.769-0.3606 3.6085-1.8359 5.9143-3.8204 8.8194 7.9778-1.423 9.8128-11.263 8.6022-17.992-1.8774-10.435-10.376-17.531-20.597-19.249-7.5731-1.2729-16.005-0.32623-22.578 3.9203-15.897 10.271-15.621 32.686-2.1167 44.902 10.726 9.7031 25.972 9.2321 39.511 9.2321h103.72c2.6504 0 7.6496 0.95091 9.7972-0.88686 5.6554-4.8395-4.0319-10.74-7.6806-11.93-6.9732-2.2728-14.287-2.5252-21.167-5.3347-14.008-5.7204-24.975-19.47-23.225-35.118 1.6758-14.978 14.807-27.098 27.811-33.052 6.6828-3.0599 14.886-4.404 20.075-9.988 1.8647-2.0064 2.5019-4.3806 3.8005-6.7014 1.1938-2.1335 2.7334-3.8438 3.1189-6.35 0.6592-4.285-7.9248-7.9289-10.666-10.684-5.8743-5.9041-7.0357-14.187-13.52-19.932-3.6126-3.2006-8.7381-1.3735-12.296-3.8634-1.9929-1.3945-2.0592-4.2586-2.3565-6.4423-0.8184-6.0123-0.493-12.281-0.5027-18.344 0-2.4032 0.2045-7.341-2.1921-8.7563-2.6171-1.5455-5.6729 1.4376-7.3278 3.1132-4.8893 4.9505-9.1686 11.175-11.786 17.638-1.7174 4.2393-1.7321 9.9733-4.1408 13.758-1.3152 2.0664-3.5052 3.4412-5.0935 5.292-4.208 4.9034-8.2612 10.305-10.933 16.228-6.0404 13.388-5.6979 35.71-23.084 39.9-16.269 3.9198-29.817-11.329-43.392-17.566-12.221-5.6148-25.586-10.024-39.158-10.334-6.2369-0.14275-12.197 1.6223-18.344 2.1115m-115.01 2.1167c-0.39517-3.943-2.6078-6.5165-0.89446-10.583 3.3967-8.0624 14.324-10.211 21.356-5.9028 4.4723 2.74 7.4289 7.6685 8.9177 12.606 7.716 25.586-6.1042 50.713-13.857 74.436-3.9436 12.068-2.7988 24.771 10.231 30.384 19.691 8.4816 44.215 2.3411 61.736-8.5342 5.5382-3.4376 10.844-7.4138 15.462-12.032 2.2193-2.2193 4.5478-6.4834 7.4734-7.6979 5.8317-2.4211 16.904 4.0576 20.645 8.1708 4.0821 4.4888 2.7993 10.577-2.3056 13.624-5.6164 3.3528-13.745 3.6796-20.108 3.9685-2.0593 0.0935-8.7636 0.16297-7.5327 3.8462 0.97462 2.9165 9.9402 2.1371 12.472 2.1371 10.631 0 27.233 3.0038 32.843-9.1722 5.5829-12.116-3.1826-22.916-14.146-27.357-3.1897-1.2921-6.5436-2.1038-9.8778-2.9132-1.1305-0.2744-3.0534-0.79674-3.2518-2.1994-0.34922-2.469 5.8251-3.9154 7.4851-4.6814 6.0321-2.7833 14.602-7.1501 16.581-14.002-6.8506 3.6469-13.102 8.0935-20.814 9.8778 8.6882-13.766 14.913-39.585-3.175-48.945-2.1609-1.1182-4.3021-1.9742-6.7028-2.4109-3.1883-0.57996-6.3255-0.68191-9.525-0.12004-4.1818 0.73437-8.4774 2.4213-11.636 5.3232-0.91944 0.84467-2.7652 2.6016-2.225 4.0548 0.38614 1.0387 1.8336 0.468 2.5723 0.26541 2.7152-0.74462 5.3058-1.4754 8.1139-1.8112 7.3982-0.88485 14.256 2.0569 16.901 9.4243 3.9943 11.123-0.49543 22.698-5.8576 32.456-9.2372 16.81-24.096 33.071-41.383 41.715-6.9844 3.4922-15.358 6.2435-23.283 5.8363-4.7023-0.24158-9.4768-0.84607-13.758-2.921-1.0736-0.52032-4.0976-1.9349-3.6644-3.4997 0.35876-1.2959 2.1828-1.8579 3.3116-2.1559 3.1457-0.83037 6.0284-1.6723 8.8194-3.4249 9.5209-5.9787 15.598-17.662 19.685-27.789 0.85696-2.1235 4.7862-9.1325 1.7541-10.72-3.5764-1.8724-4.7778 4.3453-5.6344 6.4866-3.682 9.2048-8.292 18.496-16.51 24.468-3.7681 2.7384-11.57 6.6644-13.533-0.12656-1.2435-4.3022 0.98711-9.3009 2.8628-13.053 2.6514-5.3034 5.1486-10.713 7.3368-16.228 7.4053-18.663 12.611-41.541 7.2676-61.383-3.0666-11.388-9.7243-22.076-21.573-25.744-12.281-3.8013-26.662 1.4458-32.343 13.397-4.0046 8.4253-1.9926 22.832 9.7648 22.931m68.792 22.413c-7.4926 1.8206-9.6392 17.073 0 14.663 8.1018-2.0254 10.774-17.281 0-14.663z" fill="#44403b"/>
   <g transform="matrix(.28041 0 0 .28041 1117 433.61)" fill-rule="evenodd">
    <path d="m158.75 0a158.75 158.75 0 0 0-158.75 158.75 158.75 158.75 0 0 0 158.75 158.75 113.39 158.75 0 0 0 11.418-0.81649 158.75 158.75 0 0 0 11.175-0.79943 158.75 158.75 0 0 0 136.16-157.13 158.75 158.75 0 0 0-158.75-158.75zm0 45.357a158.75 113.39 0 0 1 15.949 0.58033 22.679 158.75 0 0 1 6.7293 112.81 22.679 158.75 0 0 1-6.7474 112.58 158.75 113.39 0 0 1-15.931 0.8139 158.75 113.39 0 0 1-92.059-21.333 113.39 158.75 0 0 1-21.334-92.06 113.39 158.75 0 0 1 21.334-92.059 158.75 113.39 0 0 1 41.992-15.317 68.036 158.75 0 0 0-17.969 107.38 68.036 158.75 0 0 0 5.6193 62.505 158.75 68.036 0 0 0 41.93 4.9558 22.679 158.75 0 0 1-2.1916-67.46 22.679 158.75 0 0 1 6.7324-112.58 158.75 113.39 0 0 1 15.946-0.81494zm50.009 5.8095a158.75 113.39 0 0 1 42.236 15.338 113.39 158.75 0 0 1 21.148 92.246 113.39 158.75 0 0 1-20.95 91.854 158.75 113.39 0 0 1-42.425 15.535 68.036 158.75 0 0 0 18.018-107.39 68.036 158.75 0 0 0-18.027-107.58z" fill="url(#linearGradient33)"/>
    <g display="none">
     <circle cx="158.75" cy="158.75" r="158.75" opacity=".25"/>
     <rect x="41.687" y="155.08" width="7.3405" height="7.3405" opacity=".25"/>
     <rect x="313.83" y="155.08" width="7.3405" height="7.3405" opacity=".25"/>
     <rect x="-3.6703" y="155.08" width="7.3405" height="7.3405" opacity=".25"/>
     <rect x="87.044" y="155.08" width="7.3405" height="7.3405" opacity=".25"/>
     <rect x="132.4" y="155.08" width="7.3405" height="7.3405" opacity=".25"/>
     <rect x="177.76" y="155.08" width="7.3405" height="7.3405" opacity=".25"/>
     <rect x="223.12" y="155.08" width="7.3405" height="7.3405" opacity=".25"/>
     <rect x="268.47" y="155.08" width="7.3405" height="7.3405" opacity=".25"/>
     <ellipse cx="158.75" cy="158.75" rx="113.39" ry="158.75" opacity=".25"/>
     <ellipse cx="158.75" cy="158.75" rx="68.036" ry="158.75" opacity=".25"/>
     <ellipse cx="158.75" cy="158.75" rx="22.679" ry="158.75" opacity=".25"/>
     <ellipse transform="rotate(90)" cx="158.75" cy="-158.75" rx="113.39" ry="158.75" opacity=".25"/>
     <ellipse transform="rotate(90)" cx="158.75" cy="-158.75" rx="68.036" ry="158.75" opacity=".25"/>
     <path d="m732.23 563.22a22.679 158.75 0 0 1 22.678 158.75 22.679 158.75 0 0 1-22.678 158.75 68.036 158.75 0 0 0 68.036-158.75 68.036 158.75 0 0 0-68.036-158.75z" display="inline" opacity=".25"/>
     <path d="m732.23 563.22a68.036 158.75 0 0 0-68.036 158.75 68.036 158.75 0 0 0 5.6193 62.505 158.75 68.036 0 0 0 41.93 4.9558 22.679 158.75 0 0 1-2.1916-67.46 22.679 158.75 0 0 1 22.679-158.75z" display="inline" opacity=".25"/>
     <path d="m732.23 563.22a158.75 158.75 0 0 0-158.75 158.75 158.75 113.39 0 0 1 158.75-113.39 158.75 113.39 0 0 1 158.75 113.39 158.75 158.75 0 0 0-158.75-158.75zm158.75 158.75a158.75 113.39 0 0 1-158.75 113.39 158.75 113.39 0 0 1-158.75-113.39 158.75 158.75 0 0 0 158.75 158.75 158.75 158.75 0 0 0 158.75-158.75z" display="inline" opacity=".25"/>
     <path d="m732.23 563.22a113.39 158.75 0 0 1 113.39 158.75 113.39 158.75 0 0 1-113.39 158.75 158.75 158.75 0 0 0 158.75-158.75 158.75 158.75 0 0 0-158.75-158.75zm0 0a158.75 158.75 0 0 0-158.75 158.75 158.75 158.75 0 0 0 158.75 158.75 113.39 158.75 0 0 1-113.39-158.75 113.39 158.75 0 0 1 113.39-158.75z" display="inline" opacity=".25"/>
    </g>
    <g transform="translate(436.05 3.8965e-5)" display="none">
     <circle cx="732.22" cy="721.97" r="158.75" display="inline" opacity=".25"/>
     <ellipse cx="732.22" cy="721.97" rx="113.39" ry="158.75" display="inline" opacity=".25"/>
     <ellipse cx="732.22" cy="721.97" rx="68.036" ry="158.75" display="inline" opacity=".25"/>
     <ellipse cx="732.22" cy="721.97" rx="22.679" ry="158.75" display="inline" opacity=".25"/>
     <ellipse transform="rotate(90)" cx="721.97" cy="-732.22" rx="113.39" ry="158.75" display="inline" opacity=".25"/>
     <ellipse transform="rotate(90)" cx="721.97" cy="-732.22" rx="68.036" ry="158.75" display="inline" opacity=".25"/>
    </g>
    <path d="m1161.9 1043.4a158.75 158.75 0 0 0-158.75 158.75 158.75 158.75 0 0 0 158.75 158.75 113.39 158.75 0 0 0 11.418-0.8165 158.75 158.75 0 0 0 11.174-0.7994 158.75 158.75 0 0 0 136.16-157.13 158.75 158.75 0 0 0-158.75-158.75zm0 45.357a158.75 113.39 0 0 1 15.949 0.5804 22.679 158.75 0 0 1 6.7293 112.81 22.679 158.75 0 0 1-6.7474 112.58 158.75 113.39 0 0 1-15.931 0.8139 158.75 113.39 0 0 1-92.06-21.333 113.39 158.75 0 0 1-21.334-92.06 113.39 158.75 0 0 1 21.334-92.06 158.75 113.39 0 0 1 41.992-15.317 68.036 158.75 0 0 0-17.969 107.38 68.036 158.75 0 0 0 5.6193 62.505 158.75 68.036 0 0 0 41.93 4.9558 22.679 158.75 0 0 1-2.1916-67.46 22.679 158.75 0 0 1 6.7324-112.58 158.75 113.39 0 0 1 15.946-0.815zm50.009 5.8095a158.75 113.39 0 0 1 42.236 15.338 113.39 158.75 0 0 1 21.148 92.246 113.39 158.75 0 0 1-20.95 91.854 158.75 113.39 0 0 1-42.425 15.535 68.036 158.75 0 0 0 18.018-107.39 68.036 158.75 0 0 0-18.027-107.58z" display="none" opacity=".25"/>
   </g>
  </g>
 </g>
</svg>
